<?xml version="1.0" encoding="UTF-8" standalone="no"?>
<!DOCTYPE svg PUBLIC "-//W3C//DTD SVG 1.1//EN" "http://www.w3.org/Graphics/SVG/1.1/DTD/svg11.dtd">
<svg width="100%" height="100%" viewBox="0 0 24 24" version="1.1" xmlns="http://www.w3.org/2000/svg" xmlns:xlink="http://www.w3.org/1999/xlink" xml:space="preserve" xmlns:serif="http://www.serif.com/" style="fill-rule:evenodd;clip-rule:evenodd;stroke-linejoin:round;stroke-miterlimit:2;">
    <path d="M12,16C13.25,16 14.313,15.563 15.188,14.688C16.063,13.813 16.5,12.75 16.5,11.5C16.5,10.25 16.063,9.188 15.188,8.313C14.313,7.438 13.25,7 12,7C10.75,7 9.688,7.438 8.813,8.313C7.938,9.188 7.5,10.25 7.5,11.5C7.5,12.75 7.938,13.813 8.813,14.688C9.688,15.563 10.75,16 12,16ZM12,14.2C11.25,14.2 10.613,13.938 10.088,13.413C9.563,12.887 9.3,12.25 9.3,11.5C9.3,10.75 9.563,10.112 10.088,9.587C10.613,9.063 11.25,8.8 12,8.8C12.75,8.8 13.388,9.063 13.913,9.587C14.438,10.112 14.7,10.75 14.7,11.5C14.7,12.25 14.438,12.887 13.913,13.413C13.388,13.938 12.75,14.2 12,14.2ZM12,19C9.567,19 7.35,18.321 5.35,16.963C3.35,15.604 1.9,13.783 1,11.5C1.9,9.217 3.35,7.396 5.35,6.037C7.35,4.679 9.567,4 12,4C14.433,4 16.65,4.679 18.65,6.037C20.65,7.396 22.1,9.217 23,11.5C22.1,13.783 20.65,15.604 18.65,16.963C16.65,18.321 14.433,19 12,19Z" style="fill:rgb(0,234,234);fill-rule:nonzero;"/>
</svg>
