<?xml version="1.0" encoding="UTF-8" standalone="no"?>
<!DOCTYPE svg PUBLIC "-//W3C//DTD SVG 1.1//EN" "http://www.w3.org/Graphics/SVG/1.1/DTD/svg11.dtd">
<svg width="100%" height="100%" viewBox="0 0 24 24" version="1.1" xmlns="http://www.w3.org/2000/svg" xmlns:xlink="http://www.w3.org/1999/xlink" xml:space="preserve" xmlns:serif="http://www.serif.com/" style="fill-rule:evenodd;clip-rule:evenodd;stroke-linejoin:round;stroke-miterlimit:2;">
    <path d="M12,22C10.617,22 9.317,21.738 8.1,21.212C6.883,20.688 5.825,19.975 4.925,19.075C4.025,18.175 3.313,17.117 2.788,15.9C2.263,14.683 2,13.383 2,12C2,10.617 2.263,9.317 2.788,8.1C3.313,6.883 4.025,5.825 4.925,4.925C5.825,4.025 6.883,3.313 8.1,2.787C9.317,2.262 10.617,2 12,2C13.383,2 14.683,2.262 15.9,2.787C17.117,3.313 18.175,4.025 19.075,4.925C19.975,5.825 20.688,6.883 21.213,8.1C21.738,9.317 22,10.617 22,12C22,13.383 21.738,14.683 21.213,15.9C20.688,17.117 19.975,18.175 19.075,19.075C18.175,19.975 17.117,20.688 15.9,21.212C14.683,21.738 13.383,22 12,22ZM9.5,13.5C10.467,13.5 11.292,13.158 11.975,12.475C12.658,11.792 13,10.967 13,10C13,9.033 12.658,8.208 11.975,7.525C11.292,6.842 10.467,6.5 9.5,6.5C8.533,6.5 7.708,6.842 7.025,7.525C6.342,8.208 6,9.033 6,10C6,10.967 6.342,11.792 7.025,12.475C7.708,13.158 8.533,13.5 9.5,13.5ZM16.5,14.5C17.2,14.5 17.792,14.258 18.275,13.775C18.758,13.292 19,12.7 19,12C19,11.3 18.758,10.708 18.275,10.225C17.792,9.742 17.2,9.5 16.5,9.5C15.8,9.5 15.208,9.742 14.725,10.225C14.242,10.708 14,11.3 14,12C14,12.7 14.242,13.292 14.725,13.775C15.208,14.258 15.8,14.5 16.5,14.5ZM12,20C13.417,20 14.708,19.667 15.875,19C17.042,18.333 17.983,17.45 18.7,16.35C18.35,16.25 17.992,16.167 17.625,16.1C17.258,16.033 16.883,16 16.5,16C15.617,16 14.55,16.258 13.3,16.775C12.05,17.292 11.05,18.308 10.3,19.825C10.583,19.892 10.867,19.938 11.15,19.962C11.433,19.988 11.717,20 12,20ZM8.825,19.35C9.408,18.15 10.071,17.258 10.813,16.675C11.554,16.092 12.117,15.7 12.5,15.5C12.017,15.35 11.529,15.229 11.038,15.137C10.546,15.046 10.033,15 9.5,15C8.75,15 8.008,15.092 7.275,15.275C6.542,15.458 5.833,15.717 5.15,16.05C5.583,16.767 6.113,17.413 6.738,17.988C7.363,18.563 8.058,19.017 8.825,19.35Z" style="fill:rgb(0,234,234);fill-rule:nonzero;"/>
</svg>
